<svg enable-background="new 0 0 329.5 66.4" viewBox="0 0 329.5 66.4" xmlns="http://www.w3.org/2000/svg" xmlns:xlink="http://www.w3.org/1999/xlink"><linearGradient id="a" gradientUnits="userSpaceOnUse" x1="47.1783" x2="34.6583" y1="61.7063" y2="40.0163"><stop offset="0" stop-color="#727272"/><stop offset=".04" stop-color="#878787"/><stop offset=".12" stop-color="#ababab"/><stop offset=".2" stop-color="#c9c9c9"/><stop offset=".29" stop-color="#e0e0e0"/><stop offset=".39" stop-color="#f0f0f0"/><stop offset=".49" stop-color="#fafafa"/><stop offset=".63" stop-color="#fdfdfd"/><stop offset="1" stop-color="#fff"/></linearGradient><linearGradient id="b" gradientUnits="userSpaceOnUse" x1="28.891" x2="44.731" y1="30.9009" y2="58.3409"><stop offset="0" stop-color="#0057ff"/><stop offset=".49" stop-color="#0029e9"/><stop offset=".98" stop-color="#002874"/><stop offset=".99" stop-color="#002874"/></linearGradient><linearGradient id="c" gradientUnits="userSpaceOnUse" x1="3.4317" x2="58.0319" y1="27.9605" y2="27.9605"><stop offset="0" stop-color="#727272"/><stop offset=".13" stop-color="#a1a1a1"/><stop offset=".26" stop-color="#c9c9c9"/><stop offset=".38" stop-color="#e7e7e7"/><stop offset=".49" stop-color="#f9f9f9"/><stop offset=".56" stop-color="#fff"/><stop offset="1" stop-color="#c1c1c1"/></linearGradient><linearGradient id="d" gradientUnits="userSpaceOnUse" x1="26.1202" x2="14.3102" y1="25.5713" y2="5.0613"><stop offset="0" stop-color="#0051ff"/><stop offset=".49" stop-color="#0029e9"/><stop offset=".98" stop-color="#002874"/><stop offset=".99" stop-color="#002874"/></linearGradient><path d="m79 20.2v11.8l15.7-.1v6.4l-15.6.1.1 18.1h-7.8l-.2-42.6 24.6-.1v6.4zm23.3 36.2-.2-44.9h7.8l.2 44.9zm42.3-13.4-20.6.1c.2 5.6 4.6 7.9 9.5 7.9 2.9.1 5.8-.4 8.5-1.4l1.2 5.4c-3.4 1.4-7 2-10.7 2-10 0-15.9-6.1-16-15.6 0-8.5 5.1-16.6 15-16.6 10.1 0 13.3 8.2 13.4 14.9-.1 1.4-.2 2.6-.3 3.3zm-13.6-12.9c-4.8 0-6.8 4.4-7.1 7.6l13.5-.1c.1-2.9-1.2-7.6-6.4-7.5zm46.2 25.9h-8.8l-3.8-6.1c-1-1.6-1.9-3.3-2.8-5h-.1c-.9 1.8-1.8 3.3-2.8 5l-3.5 6.2h-8.6l10.6-15.7-10.4-15.1h8.7l3.7 5.8c1 1.6 1.9 3.2 2.8 4.7h.2c.9-1.7 1.8-3.3 2.6-4.9l3.4-5.7h8.5l-10.2 14.8z" fill="#0059ff"/><g fill="#b2b2b2"><path d="m327.4 26.5-2 3.3-.4-.3c-1.5-1.2-3.5-1.8-5.5-1.7-3.1-.2-5.8 1.9-6.3 4.9-.4 2.8 1.1 3.9 4.9 5.6 3.6 1.5 7.6 3.9 6.6 9.6-.9 5.4-5.9 9.1-12.3 9.2h-.4c-2.6 0-5.2-.8-7.4-2.2l-.4-.3 2-3.4.4.3c1.8 1.3 4 2 6.2 2 5 0 7.2-2.8 7.6-5.4.5-2.9-.7-4.5-4.9-6.4-5-2-7.2-5-6.6-8.8.8-4.3 4.9-8.7 11.3-8.7 2.4-.1 4.8.6 6.7 2z"/><path d="m307 24.5-.7 3.9-.5-.1c-.5-.1-.9-.1-1.4-.1-3.8 0-7.3 3.2-9.1 8.3-.3.9-.6 1.9-.8 2.8l-2.9 17.2h-4l3.8-21.9c.5-2.8 1-6 1.3-9.1v-.5h3.8l-.7 4.7c2.3-3.4 5.8-5.4 9.2-5.4.2 0 .5 0 .7.1h.5.8z"/><path d="m281.8 27.5c-1.8-2-4.4-3.1-7.7-3-8.3 0-15.3 6.9-17 16.8-.8 4.8 0 9 2.4 11.8 2.2 2.6 5.5 3.9 9.6 3.9h.5c3.3 0 6.6-.7 9.6-2l.4-.2-.6-3.3-.6.3c-2.6 1.3-5.5 1.9-8.5 1.8-3.1 0-5.6-.9-7.1-2.7-1.8-2.2-2.4-5.5-1.8-9.8l22.4-.1.1-.3c.2-.6.4-1.3.4-1.9.5-1.8 1.1-7.6-2.1-11.3zm-8.5.5c2.4 0 4.2.7 5.4 2.1 1.9 2.3 1.6 5.9 1.4 7.5l-18.1.1c1.5-4.7 5.3-9.7 11.3-9.7z"/><path d="m265.1 11.2-1.9 3.2-.4-.2c-1.1-.5-2.3-.8-3.5-.8-5.6 0-7.3 5.4-8.3 10.7l-.2 1.1h8.1l-.6 3.5h-8.1l-4.8 28h-4l4.8-28h-13.7l-4.8 28h-4l4.8-28h-4.4l.6-3.5h4.4l.1-.8c.8-4.9 2.7-8.8 5.5-11.3 2-1.8 4.7-2.7 7.3-2.6 1.6 0 3.2.4 4.6 1.3l.4.3-1.9 3.2-.4-.3c-1-.6-2.2-.9-3.3-.9-4.3 0-6.8 3.2-8 10.2l-.2.9 13.7-.1.2-1.3c.9-5.3 2.6-8.9 5.4-11.3 2.1-1.8 4.8-2.8 7.6-2.8h.1c1.6-.1 3.2.3 4.7 1.2z"/><path d="m216.2 17.6c-2.9-3.4-7.1-5.2-12.1-5.2-11.6 0-21.3 9.5-23.6 23-1.2 6.9 0 13 3.4 17 2.9 3.4 7 5.2 12.1 5.2h.1c9.7 0 20.8-7.1 23.5-23 1.2-7 0-13-3.4-17zm-.8 17.1c-1.6 9.4-8.1 19.5-18.8 19.5-3.7 0-6.8-1.4-9-3.9-2.9-3.4-4-8.9-3-14.7 1.7-9.7 8.1-19.5 18.8-19.6 3.8 0 6.7 1.3 8.9 3.8 2.9 3.4 4.1 8.9 3.1 14.9z"/></g><path d="m41.4 40.6s12.8 12.1 17.3 14.5l-25.1 9.7-.1-17z" fill="url(#a)"/><path d="m3.3 53.4s31.3-16 46.4-29.8c3.8-3.8 6.8-6.8 8.1-9.4 0 0-23.6 35.1-24.2 50.6z" fill="url(#b)"/><path d="m28.6 2.8 29.5 11.5s-8.6 17-54.6 38.9c-.1 0 30.9-19.6 25.1-50.4z" fill="url(#c)"/><path d="m28.5 2.8-25.6 9.4s19.2 11.9 20.5 19.6c.1 0 9.6-14.9 5.1-29z" fill="url(#d)"/></svg>